<svg xmlns="http://www.w3.org/2000/svg" width="805" height="600"><rect width="805" height="600" x="0" y="0" fill="#FFFFFF" id="background" style="--darkreader-inline-fill: #181a1b;" data-darkreader-inline-fill=""/><g id="viz"><clipPath id="serieClipPath"><rect x="-50" y="-10" width="805" height="600"/></clipPath><g transform="translate(0,0)"><g transform="translate(50,10)" clip-path="url(#serieClipPath)"><g id="axis"><g transform="translate(0,570)" fill="none" font-size="10" font-family="sans-serif" text-anchor="middle"><path class="domain" stroke="currentColor" d="M0.5,6V0.5H740.5V6" style="--darkreader-inline-stroke: currentColor;" data-darkreader-inline-stroke=""/><g class="tick" opacity="1" transform="translate(0.5,0)"><line stroke="currentColor" y2="6" style="--darkreader-inline-stroke: currentColor;" data-darkreader-inline-stroke=""/><text fill="currentColor" y="9" dy="0.71em" style="--darkreader-inline-fill: currentColor;" data-darkreader-inline-fill="">0</text></g><g class="tick" opacity="1" transform="translate(106.21428571428571,0)"><line stroke="currentColor" y2="6" style="--darkreader-inline-stroke: currentColor;" data-darkreader-inline-stroke=""/><text fill="currentColor" y="9" dy="0.71em" style="--darkreader-inline-fill: currentColor;" data-darkreader-inline-fill="">5</text></g><g class="tick" opacity="1" transform="translate(211.92857142857142,0)"><line stroke="currentColor" y2="6" style="--darkreader-inline-stroke: currentColor;" data-darkreader-inline-stroke=""/><text fill="currentColor" y="9" dy="0.71em" style="--darkreader-inline-fill: currentColor;" data-darkreader-inline-fill="">10</text></g><g class="tick" opacity="1" transform="translate(317.6428571428571,0)"><line stroke="currentColor" y2="6" style="--darkreader-inline-stroke: currentColor;" data-darkreader-inline-stroke=""/><text fill="currentColor" y="9" dy="0.71em" style="--darkreader-inline-fill: currentColor;" data-darkreader-inline-fill="">15</text></g><g class="tick" opacity="1" transform="translate(423.35714285714283,0)"><line stroke="currentColor" y2="6" style="--darkreader-inline-stroke: currentColor;" data-darkreader-inline-stroke=""/><text fill="currentColor" y="9" dy="0.71em" style="--darkreader-inline-fill: currentColor;" data-darkreader-inline-fill="">20</text></g><g class="tick" opacity="1" transform="translate(529.0714285714286,0)"><line stroke="currentColor" y2="6" style="--darkreader-inline-stroke: currentColor;" data-darkreader-inline-stroke=""/><text fill="currentColor" y="9" dy="0.71em" style="--darkreader-inline-fill: currentColor;" data-darkreader-inline-fill="">25</text></g><g class="tick" opacity="1" transform="translate(634.7857142857142,0)"><line stroke="currentColor" y2="6" style="--darkreader-inline-stroke: currentColor;" data-darkreader-inline-stroke=""/><text fill="currentColor" y="9" dy="0.71em" style="--darkreader-inline-fill: currentColor;" data-darkreader-inline-fill="">30</text></g><g class="tick" opacity="1" transform="translate(740.5,0)"><line stroke="currentColor" y2="6" style="--darkreader-inline-stroke: currentColor;" data-darkreader-inline-stroke=""/><text fill="currentColor" y="9" dy="0.71em" style="--darkreader-inline-fill: currentColor;" data-darkreader-inline-fill="">35</text></g><text x="740" dy="-5" text-anchor="end" style="font-family: Arial, sans-serif; font-size: 12px; fill: rgb(123, 123, 123); font-weight: bold; --darkreader-inline-fill: #9a9284;" data-darkreader-inline-fill="">Index</text></g><g transform="translate(0,0)" fill="none" font-size="10" font-family="sans-serif" text-anchor="end"><path class="domain" stroke="currentColor" d="M0.5,570.5V0.5" style="--darkreader-inline-stroke: currentColor;" data-darkreader-inline-stroke=""/><g class="tick" opacity="1" transform="translate(0,570.5)"><line stroke="currentColor" x2="-6" style="--darkreader-inline-stroke: currentColor;" data-darkreader-inline-stroke=""/><text fill="currentColor" x="-9" dy="0.32em" style="--darkreader-inline-fill: currentColor;" data-darkreader-inline-fill="">0.0</text></g><g class="tick" opacity="1" transform="translate(0,518.6818181818181)"><line stroke="currentColor" x2="-6" style="--darkreader-inline-stroke: currentColor;" data-darkreader-inline-stroke=""/><text fill="currentColor" x="-9" dy="0.32em" style="--darkreader-inline-fill: currentColor;" data-darkreader-inline-fill="">0.1</text></g><g class="tick" opacity="1" transform="translate(0,466.8636363636363)"><line stroke="currentColor" x2="-6" style="--darkreader-inline-stroke: currentColor;" data-darkreader-inline-stroke=""/><text fill="currentColor" x="-9" dy="0.32em" style="--darkreader-inline-fill: currentColor;" data-darkreader-inline-fill="">0.2</text></g><g class="tick" opacity="1" transform="translate(0,415.04545454545456)"><line stroke="currentColor" x2="-6" style="--darkreader-inline-stroke: currentColor;" data-darkreader-inline-stroke=""/><text fill="currentColor" x="-9" dy="0.32em" style="--darkreader-inline-fill: currentColor;" data-darkreader-inline-fill="">0.3</text></g><g class="tick" opacity="1" transform="translate(0,363.22727272727275)"><line stroke="currentColor" x2="-6" style="--darkreader-inline-stroke: currentColor;" data-darkreader-inline-stroke=""/><text fill="currentColor" x="-9" dy="0.32em" style="--darkreader-inline-fill: currentColor;" data-darkreader-inline-fill="">0.4</text></g><g class="tick" opacity="1" transform="translate(0,311.4090909090909)"><line stroke="currentColor" x2="-6" style="--darkreader-inline-stroke: currentColor;" data-darkreader-inline-stroke=""/><text fill="currentColor" x="-9" dy="0.32em" style="--darkreader-inline-fill: currentColor;" data-darkreader-inline-fill="">0.5</text></g><g class="tick" opacity="1" transform="translate(0,259.5909090909091)"><line stroke="currentColor" x2="-6" style="--darkreader-inline-stroke: currentColor;" data-darkreader-inline-stroke=""/><text fill="currentColor" x="-9" dy="0.32em" style="--darkreader-inline-fill: currentColor;" data-darkreader-inline-fill="">0.6</text></g><g class="tick" opacity="1" transform="translate(0,207.77272727272734)"><line stroke="currentColor" x2="-6" style="--darkreader-inline-stroke: currentColor;" data-darkreader-inline-stroke=""/><text fill="currentColor" x="-9" dy="0.32em" style="--darkreader-inline-fill: currentColor;" data-darkreader-inline-fill="">0.7</text></g><g class="tick" opacity="1" transform="translate(0,155.95454545454544)"><line stroke="currentColor" x2="-6" style="--darkreader-inline-stroke: currentColor;" data-darkreader-inline-stroke=""/><text fill="currentColor" x="-9" dy="0.32em" style="--darkreader-inline-fill: currentColor;" data-darkreader-inline-fill="">0.8</text></g><g class="tick" opacity="1" transform="translate(0,104.13636363636367)"><line stroke="currentColor" x2="-6" style="--darkreader-inline-stroke: currentColor;" data-darkreader-inline-stroke=""/><text fill="currentColor" x="-9" dy="0.32em" style="--darkreader-inline-fill: currentColor;" data-darkreader-inline-fill="">0.9</text></g><g class="tick" opacity="1" transform="translate(0,52.318181818181834)"><line stroke="currentColor" x2="-6" style="--darkreader-inline-stroke: currentColor;" data-darkreader-inline-stroke=""/><text fill="currentColor" x="-9" dy="0.32em" style="--darkreader-inline-fill: currentColor;" data-darkreader-inline-fill="">1.0</text></g><g class="tick" opacity="1" transform="translate(0,0.5)"><line stroke="currentColor" x2="-6" style="--darkreader-inline-stroke: currentColor;" data-darkreader-inline-stroke=""/><text fill="currentColor" x="-9" dy="0.32em" style="--darkreader-inline-fill: currentColor;" data-darkreader-inline-fill="">1.1</text></g><text x="4" text-anchor="start" dominant-baseline="hanging" style="font-family: Arial, sans-serif; font-size: 12px; fill: rgb(123, 123, 123); font-weight: bold; --darkreader-inline-fill: #9a9284;" data-darkreader-inline-fill="">Value</text></g></g><g id="viz"><g><path d="M0,342.4767583636364C10.571428571428571,342.4767583636364,10.571428571428571,215.1855501818182,21.142857142857142,215.1855501818182C31.714285714285715,215.1855501818182,31.714285714285715,103.79608800000005,42.285714285714285,103.79608800000005C52.85714285714286,103.79608800000005,52.85714285714286,46.14792545454551,63.42857142857143,46.14792545454551C74,46.14792545454551,74,56.544932727272766,84.57142857142857,56.544932727272766C95.14285714285714,56.544932727272766,95.14285714285714,114.77333454545453,105.71428571428571,114.77333454545453C116.28571428571428,114.77333454545453,116.28571428571428,175.1163171818182,126.85714285714286,175.1163171818182C137.42857142857144,175.1163171818182,137.42857142857144,187.97840863636364,148,187.97840863636364C158.57142857142856,187.97840863636364,158.57142857142856,570,169.14285714285714,570C179.71428571428572,570,179.71428571428572,570,190.28571428571428,570C200.85714285714283,570,200.85714285714283,570,211.42857142857142,570C222,570,222,570,232.57142857142856,570C243.14285714285714,570,243.14285714285714,570,253.71428571428572,570C264.28571428571433,570,264.28571428571433,570,274.8571428571429,570C285.42857142857144,570,285.42857142857144,570,296,570C306.57142857142856,570,306.57142857142856,570,317.1428571428571,570C327.71428571428567,570,327.71428571428567,570,338.2857142857143,570C348.8571428571429,570,348.8571428571429,570,359.42857142857144,570C370,570,370,570,380.57142857142856,570C391.1428571428571,570,391.1428571428571,570,401.71428571428567,570C412.2857142857142,570,412.2857142857142,570,422.85714285714283,570C433.42857142857144,570,433.42857142857144,570,444,570C454.57142857142856,570,454.57142857142856,570,465.1428571428571,570C475.71428571428567,570,475.71428571428567,570,486.2857142857143,570C496.8571428571429,570,496.8571428571429,570,507.42857142857144,570C518,570,518,570,528.5714285714286,570C539.1428571428571,570,539.1428571428571,570,549.7142857142858,570C560.2857142857143,570,560.2857142857143,570,570.8571428571429,570C581.4285714285714,570,581.4285714285714,570,592,570C602.5714285714287,570,602.5714285714287,570,613.1428571428572,570C623.7142857142858,570,623.7142857142858,570,634.2857142857142,570C644.8571428571429,570,644.8571428571429,570,655.4285714285714,570C666,570,666,570,676.5714285714286,570" stroke="#1f77b4" fill="none" style="--darkreader-inline-stroke: #55a8e2;" data-darkreader-inline-stroke=""/><text font-family="sans-serif" font-size="10" class="labels" x="63.42857142857143" y="46.14792545454551" dx="0" dy="-4" text-anchor="middle"/></g></g></g><text y="4" x="4" style="font-family: Arial, sans-serif; font-size: 12px; fill: black; font-weight: bold; dominant-baseline: hanging; --darkreader-inline-fill: #e8e6e3;" data-darkreader-inline-fill=""/></g><g id="grid"><rect x="0" y="0" width="805" height="600" fill="none" stroke="#ccc" style="--darkreader-inline-stroke: #c8c3bc;" data-darkreader-inline-stroke=""/></g></g></svg>